<mxfile host="app.diagrams.net" modified="2023-06-16T09:22:08.497Z" agent="Mozilla/5.0 (Macintosh; Intel Mac OS X 10_15_7) AppleWebKit/537.36 (KHTML, like Gecko) Chrome/114.0.0.0 Safari/537.36" etag="GfFFKvDjO6N-T7dMDlob" version="21.4.0" type="github">
  <diagram name="Page-1" id="-QHIqC0YscCdDUo-vayC">
    <mxGraphModel dx="1048" dy="562" grid="1" gridSize="10" guides="1" tooltips="1" connect="1" arrows="1" fold="1" page="1" pageScale="1" pageWidth="827" pageHeight="1169" math="0" shadow="0">
      <root>
        <mxCell id="0" />
        <mxCell id="1" parent="0" />
        <mxCell id="CowYe1OC4gD4OdUNwLvw-1" value="&lt;h1&gt;FR&lt;/h1&gt;&lt;p&gt;- Shorten the long URL provider&lt;br&gt;- Redirect the user to long url&lt;/p&gt;" style="text;html=1;strokeColor=none;fillColor=none;spacing=5;spacingTop=-20;whiteSpace=wrap;overflow=hidden;rounded=0;" vertex="1" parent="1">
          <mxGeometry x="100" y="30" width="190" height="120" as="geometry" />
        </mxCell>
        <mxCell id="CowYe1OC4gD4OdUNwLvw-2" value="&lt;h1&gt;NFR&lt;/h1&gt;&lt;p&gt;- Should be highly availabe&lt;br&gt;- Redirect the user to long url&lt;/p&gt;" style="text;html=1;strokeColor=none;fillColor=none;spacing=5;spacingTop=-20;whiteSpace=wrap;overflow=hidden;rounded=0;" vertex="1" parent="1">
          <mxGeometry x="340" y="30" width="190" height="120" as="geometry" />
        </mxCell>
        <mxCell id="CowYe1OC4gD4OdUNwLvw-3" value="&lt;h1&gt;Question&lt;/h1&gt;&lt;p&gt;&lt;font color=&quot;#cccc00&quot;&gt;&lt;b&gt;What will be the traffic?&lt;br&gt;&lt;/b&gt;&lt;/font&gt;- x request per second&lt;br&gt;&lt;b&gt;&lt;font color=&quot;#ffff33&quot;&gt;How many years we need store the data?&lt;br&gt;&lt;/font&gt;&lt;/b&gt;10 years&lt;br&gt;- x*60*60*24*365*10&lt;br&gt;&lt;b&gt;&lt;font color=&quot;#ffff33&quot;&gt;What should be the length of the URL key&lt;br&gt;&lt;/font&gt;&lt;/b&gt;- 7 Characters&lt;br&gt;&lt;b&gt;&lt;font color=&quot;#ffff33&quot;&gt;Available keywords?&lt;br&gt;&lt;/font&gt;&lt;/b&gt;- a-z, A-Z, 0-9&lt;/p&gt;" style="text;html=1;strokeColor=none;fillColor=none;spacing=5;spacingTop=-20;whiteSpace=wrap;overflow=hidden;rounded=0;" vertex="1" parent="1">
          <mxGeometry x="110" y="150" width="350" height="200" as="geometry" />
        </mxCell>
        <mxCell id="CowYe1OC4gD4OdUNwLvw-22" style="edgeStyle=orthogonalEdgeStyle;rounded=0;orthogonalLoop=1;jettySize=auto;html=1;" edge="1" parent="1" source="CowYe1OC4gD4OdUNwLvw-4" target="CowYe1OC4gD4OdUNwLvw-8">
          <mxGeometry relative="1" as="geometry" />
        </mxCell>
        <mxCell id="CowYe1OC4gD4OdUNwLvw-4" value="" style="image;points=[];aspect=fixed;html=1;align=center;shadow=0;dashed=0;image=img/lib/allied_telesis/computer_and_terminals/Personal_Computer.svg;" vertex="1" parent="1">
          <mxGeometry x="50" y="500" width="45.6" height="61.800000000000004" as="geometry" />
        </mxCell>
        <mxCell id="CowYe1OC4gD4OdUNwLvw-23" style="edgeStyle=orthogonalEdgeStyle;rounded=0;orthogonalLoop=1;jettySize=auto;html=1;" edge="1" parent="1" source="CowYe1OC4gD4OdUNwLvw-6" target="CowYe1OC4gD4OdUNwLvw-8">
          <mxGeometry relative="1" as="geometry" />
        </mxCell>
        <mxCell id="CowYe1OC4gD4OdUNwLvw-6" value="" style="outlineConnect=0;dashed=0;verticalLabelPosition=bottom;verticalAlign=top;align=center;html=1;shape=mxgraph.aws3.mobile_client;fillColor=#D2D3D3;gradientColor=none;" vertex="1" parent="1">
          <mxGeometry x="50" y="590" width="40.5" height="63" as="geometry" />
        </mxCell>
        <mxCell id="CowYe1OC4gD4OdUNwLvw-24" style="edgeStyle=orthogonalEdgeStyle;rounded=0;orthogonalLoop=1;jettySize=auto;html=1;entryX=0;entryY=0.5;entryDx=0;entryDy=0;" edge="1" parent="1" source="CowYe1OC4gD4OdUNwLvw-8" target="CowYe1OC4gD4OdUNwLvw-12">
          <mxGeometry relative="1" as="geometry" />
        </mxCell>
        <mxCell id="CowYe1OC4gD4OdUNwLvw-29" value="Generate URL" style="edgeLabel;html=1;align=center;verticalAlign=middle;resizable=0;points=[];" vertex="1" connectable="0" parent="CowYe1OC4gD4OdUNwLvw-24">
          <mxGeometry x="-0.1053" relative="1" as="geometry">
            <mxPoint as="offset" />
          </mxGeometry>
        </mxCell>
        <mxCell id="CowYe1OC4gD4OdUNwLvw-8" value="Load Balancer" style="sketch=0;outlineConnect=0;fontColor=#FFFFFF;gradientColor=none;fillColor=#4D27AA;strokeColor=none;dashed=0;verticalLabelPosition=bottom;verticalAlign=top;align=center;html=1;fontSize=12;fontStyle=0;aspect=fixed;pointerEvents=1;shape=mxgraph.aws4.gateway_load_balancer;" vertex="1" parent="1">
          <mxGeometry x="196" y="546" width="78" height="78" as="geometry" />
        </mxCell>
        <mxCell id="CowYe1OC4gD4OdUNwLvw-15" value="" style="group" vertex="1" connectable="0" parent="1">
          <mxGeometry x="400" y="490" width="130" height="190" as="geometry" />
        </mxCell>
        <mxCell id="CowYe1OC4gD4OdUNwLvw-12" value="Short URL Service" style="rounded=0;whiteSpace=wrap;html=1;" vertex="1" parent="CowYe1OC4gD4OdUNwLvw-15">
          <mxGeometry width="130" height="190" as="geometry" />
        </mxCell>
        <mxCell id="CowYe1OC4gD4OdUNwLvw-11" value="" style="image;aspect=fixed;perimeter=ellipsePerimeter;html=1;align=center;shadow=0;dashed=0;spacingTop=3;image=img/lib/active_directory/generic_server.svg;" vertex="1" parent="CowYe1OC4gD4OdUNwLvw-15">
          <mxGeometry x="52" y="15.899999999999977" width="28.000000000000004" height="50" as="geometry" />
        </mxCell>
        <mxCell id="CowYe1OC4gD4OdUNwLvw-13" value="" style="image;aspect=fixed;perimeter=ellipsePerimeter;html=1;align=center;shadow=0;dashed=0;spacingTop=3;image=img/lib/active_directory/generic_server.svg;" vertex="1" parent="CowYe1OC4gD4OdUNwLvw-15">
          <mxGeometry x="51" y="120" width="28.000000000000004" height="50" as="geometry" />
        </mxCell>
        <mxCell id="CowYe1OC4gD4OdUNwLvw-16" value="" style="group" vertex="1" connectable="0" parent="1">
          <mxGeometry x="620" y="680" width="130" height="137" as="geometry" />
        </mxCell>
        <mxCell id="CowYe1OC4gD4OdUNwLvw-17" value="&lt;p style=&quot;line-height: 240%;&quot;&gt;&lt;/p&gt;&lt;div style=&quot;&quot;&gt;&lt;span style=&quot;background-color: initial;&quot;&gt;&lt;br&gt;&lt;/span&gt;&lt;/div&gt;&lt;div style=&quot;&quot;&gt;&lt;span style=&quot;background-color: initial;&quot;&gt;&lt;br&gt;&lt;/span&gt;&lt;/div&gt;&lt;div style=&quot;&quot;&gt;&lt;span style=&quot;background-color: initial;&quot;&gt;&lt;br&gt;&lt;/span&gt;&lt;/div&gt;&lt;div style=&quot;&quot;&gt;&lt;span style=&quot;background-color: initial;&quot;&gt;&lt;br&gt;&lt;/span&gt;&lt;/div&gt;&lt;div style=&quot;&quot;&gt;&lt;span style=&quot;background-color: initial;&quot;&gt;&lt;br&gt;&lt;/span&gt;&lt;/div&gt;&lt;div style=&quot;&quot;&gt;&lt;span style=&quot;background-color: initial;&quot;&gt;&lt;br&gt;&lt;/span&gt;&lt;/div&gt;&lt;div style=&quot;&quot;&gt;&lt;span style=&quot;background-color: initial;&quot;&gt;&lt;br&gt;&lt;/span&gt;&lt;/div&gt;&lt;div style=&quot;&quot;&gt;&lt;span style=&quot;background-color: initial;&quot;&gt;Token Service&lt;/span&gt;&lt;/div&gt;&lt;p&gt;&lt;/p&gt;" style="rounded=0;whiteSpace=wrap;html=1;align=center;" vertex="1" parent="CowYe1OC4gD4OdUNwLvw-16">
          <mxGeometry width="130" height="137" as="geometry" />
        </mxCell>
        <mxCell id="CowYe1OC4gD4OdUNwLvw-18" value="" style="image;aspect=fixed;perimeter=ellipsePerimeter;html=1;align=center;shadow=0;dashed=0;spacingTop=3;image=img/lib/active_directory/generic_server.svg;" vertex="1" parent="CowYe1OC4gD4OdUNwLvw-16">
          <mxGeometry x="48.14" y="30" width="33.72" height="60.21" as="geometry" />
        </mxCell>
        <mxCell id="CowYe1OC4gD4OdUNwLvw-20" style="edgeStyle=orthogonalEdgeStyle;rounded=0;orthogonalLoop=1;jettySize=auto;html=1;exitX=0.5;exitY=1;exitDx=0;exitDy=0;" edge="1" parent="CowYe1OC4gD4OdUNwLvw-16" source="CowYe1OC4gD4OdUNwLvw-17" target="CowYe1OC4gD4OdUNwLvw-17">
          <mxGeometry relative="1" as="geometry" />
        </mxCell>
        <mxCell id="CowYe1OC4gD4OdUNwLvw-21" value="Cassandra" style="image;aspect=fixed;perimeter=ellipsePerimeter;html=1;align=center;shadow=0;dashed=0;spacingTop=3;image=img/lib/active_directory/database_cube.svg;" vertex="1" parent="1">
          <mxGeometry x="780" y="500" width="90" height="100" as="geometry" />
        </mxCell>
        <mxCell id="CowYe1OC4gD4OdUNwLvw-25" style="edgeStyle=orthogonalEdgeStyle;rounded=0;orthogonalLoop=1;jettySize=auto;html=1;entryX=0.333;entryY=0.85;entryDx=0;entryDy=0;entryPerimeter=0;" edge="1" parent="1" source="CowYe1OC4gD4OdUNwLvw-12" target="CowYe1OC4gD4OdUNwLvw-21">
          <mxGeometry relative="1" as="geometry" />
        </mxCell>
        <mxCell id="CowYe1OC4gD4OdUNwLvw-30" value="Save URL" style="edgeLabel;html=1;align=center;verticalAlign=middle;resizable=0;points=[];" vertex="1" connectable="0" parent="CowYe1OC4gD4OdUNwLvw-25">
          <mxGeometry x="-0.0999" y="-1" relative="1" as="geometry">
            <mxPoint as="offset" />
          </mxGeometry>
        </mxCell>
        <mxCell id="CowYe1OC4gD4OdUNwLvw-27" style="edgeStyle=orthogonalEdgeStyle;rounded=0;orthogonalLoop=1;jettySize=auto;html=1;" edge="1" parent="1" source="CowYe1OC4gD4OdUNwLvw-12" target="CowYe1OC4gD4OdUNwLvw-17">
          <mxGeometry relative="1" as="geometry" />
        </mxCell>
        <mxCell id="CowYe1OC4gD4OdUNwLvw-28" value="Fetch Tokens" style="edgeLabel;html=1;align=center;verticalAlign=middle;resizable=0;points=[];" vertex="1" connectable="0" parent="CowYe1OC4gD4OdUNwLvw-27">
          <mxGeometry x="-0.1558" y="3" relative="1" as="geometry">
            <mxPoint as="offset" />
          </mxGeometry>
        </mxCell>
      </root>
    </mxGraphModel>
  </diagram>
</mxfile>
